<svg width="15" height="14" viewBox="0 0 15 14" fill="none" xmlns="http://www.w3.org/2000/svg">
<path d="M5.74991 10.0003H4.24987V0.500013C4.24987 0.367402 4.19719 0.240221 4.10342 0.146451C4.00965 0.0526798 3.88247 2.61449e-09 3.74986 2.61449e-09H2.74983C2.61722 2.61449e-09 2.49004 0.0526798 2.39627 0.146451C2.3025 0.240221 2.24982 0.367402 2.24982 0.500013V10.0003H0.749777C0.306327 10.0003 0.0822588 10.539 0.396955 10.8537L2.89702 13.8538C2.99078 13.9475 3.11791 14.0001 3.25047 14.0001C3.38302 14.0001 3.51015 13.9475 3.60392 13.8538L6.10398 10.8537C6.41712 10.5397 6.1943 10.0003 5.74991 10.0003ZM13.2501 8.00021H9.25C9.11739 8.00021 8.99021 8.05289 8.89644 8.14666C8.80267 8.24044 8.74999 8.36762 8.74999 8.50023V9.50025C8.74999 9.63287 8.80267 9.76005 8.89644 9.85382C8.99021 9.94759 9.11739 10.0003 9.25 10.0003H11.0001L9.08562 12.2019C8.98007 12.2957 8.89558 12.4109 8.83773 12.5397C8.77988 12.6685 8.74998 12.8082 8.74999 12.9494V13.5004C8.74999 13.633 8.80267 13.7602 8.89644 13.8539C8.99021 13.9477 9.11739 14.0004 9.25 14.0004H13.2501C13.3827 14.0004 13.5099 13.9477 13.6037 13.8539C13.6974 13.7602 13.7501 13.633 13.7501 13.5004V12.5003C13.7501 12.3677 13.6974 12.2405 13.6037 12.1468C13.5099 12.053 13.3827 12.0003 13.2501 12.0003H11.5001L13.4145 9.7987C13.5201 9.70487 13.6045 9.58974 13.6624 9.4609C13.7202 9.33205 13.7501 9.19242 13.7501 9.05118V8.50023C13.7501 8.36762 13.6974 8.24044 13.6037 8.14666C13.5099 8.05289 13.3827 8.00021 13.2501 8.00021ZM14.2208 5.33202L12.3685 0.331884C12.3338 0.234745 12.27 0.150709 12.1857 0.0912932C12.1013 0.0318773 12.0007 -1.05424e-05 11.8976 2.61449e-09H10.6025C10.4994 -1.05424e-05 10.3988 0.0318773 10.3145 0.0912932C10.2301 0.150709 10.1663 0.234745 10.1316 0.331884L8.27935 5.33202C8.25242 5.40745 8.244 5.48826 8.25481 5.56763C8.26562 5.647 8.29534 5.72261 8.34147 5.78809C8.3876 5.85358 8.44879 5.90702 8.51988 5.94393C8.59097 5.98083 8.66989 6.00012 8.74999 6.00016H9.52595C9.63171 6.0002 9.73475 5.9667 9.82027 5.90448C9.90579 5.84226 9.96938 5.75453 10.0019 5.6539L10.14 5.25014H12.3588L12.4967 5.6539C12.5292 5.75474 12.593 5.84261 12.6788 5.90485C12.7646 5.96708 12.8679 6.00046 12.9739 6.00016H13.7501C13.8302 6.00012 13.9091 5.98083 13.9802 5.94393C14.0513 5.90702 14.1125 5.85358 14.1586 5.78809C14.2048 5.72261 14.2345 5.647 14.2453 5.56763C14.2561 5.48826 14.2477 5.40745 14.2208 5.33202ZM10.7379 3.50009L11.2501 2.00005L11.7623 3.50009H10.7379Z" fill="#58676D"/>
</svg>
