<svg width="14" height="14" viewBox="0 0 14 14" fill="none" xmlns="http://www.w3.org/2000/svg">
<path d="M0.339401 4.04756L6.70879 6.93694C6.89473 7.02143 7.105 7.02143 7.29094 6.93694L13.6603 4.04756C14.1129 3.84221 14.1129 3.15835 13.6603 2.953L7.29121 0.0633371C7.19985 0.021581 7.10058 -3.05176e-05 7.00014 -3.05176e-05C6.89969 -3.05176e-05 6.80042 0.021581 6.70907 0.0633371L0.339401 2.95272C-0.113134 3.15807 -0.113134 3.84221 0.339401 4.04756ZM13.6606 6.46144L12.0722 5.74149L7.65242 7.74494C7.4457 7.83873 7.22613 7.88631 7 7.88631C6.77387 7.88631 6.55458 7.83873 6.34759 7.74494L1.92806 5.74149L0.339401 6.46144C-0.113134 6.66652 -0.113134 7.3501 0.339401 7.55518L6.70879 10.4424C6.89473 10.5266 7.105 10.5266 7.29094 10.4424L13.6606 7.55518C14.1131 7.3501 14.1131 6.66652 13.6606 6.46144ZM13.6606 9.95594L12.0782 9.23872L7.65242 11.2449C7.4457 11.3387 7.22613 11.3863 7 11.3863C6.77387 11.3863 6.55458 11.3387 6.34759 11.2449L1.92204 9.23872L0.339401 9.95594C-0.113134 10.161 -0.113134 10.8446 0.339401 11.0497L6.70879 13.9369C6.89473 14.0211 7.105 14.0211 7.29094 13.9369L13.6606 11.0497C14.1131 10.8446 14.1131 10.161 13.6606 9.95594Z" fill="#11ABEC"/>
</svg>
