<svg width="15" height="14" viewBox="0 0 15 14" fill="none" xmlns="http://www.w3.org/2000/svg">
<path d="M0.589279 4.04841L6.95867 6.9378C7.14461 7.02229 7.35488 7.02229 7.54081 6.9378L13.9102 4.04841C14.3627 3.84306 14.3627 3.1592 13.9102 2.95385L7.54109 0.0641916C7.44973 0.0224355 7.35046 0.000823975 7.25002 0.000823975C7.14957 0.000823975 7.0503 0.0224355 6.95894 0.0641916L0.589279 2.95358C0.136744 3.15893 0.136744 3.84306 0.589279 4.04841ZM13.9105 6.46229L12.3221 5.74234L7.90229 7.7458C7.69558 7.83959 7.47601 7.88716 7.24988 7.88716C7.02375 7.88716 6.80445 7.83959 6.59746 7.7458L2.17794 5.74234L0.589279 6.46229C0.136744 6.66737 0.136744 7.35096 0.589279 7.55603L6.95867 10.4432C7.14461 10.5275 7.35488 10.5275 7.54081 10.4432L13.9105 7.55603C14.363 7.35096 14.363 6.66737 13.9105 6.46229ZM13.9105 9.95679L12.3281 9.23957L7.90229 11.2458C7.69558 11.3396 7.47601 11.3871 7.24988 11.3871C7.02375 11.3871 6.80445 11.3396 6.59746 11.2458L2.17192 9.23957L0.589279 9.95679C0.136744 10.1619 0.136744 10.8455 0.589279 11.0505L6.95867 13.9377C7.14461 14.0219 7.35488 14.0219 7.54081 13.9377L13.9105 11.0505C14.363 10.8455 14.363 10.1619 13.9105 9.95679Z" fill="#58676D"/>
</svg>
